# AST/ASF file generated using VICON BodyLanguage
# -----------------------------------------------
:version 1.10
:name VICON
:units
  mass 1.0
  length 0.45
  angle deg
:documentation
   .ast/.asf automatically generated from VICON data using
   VICON BodyBuilder and BodyLanguage model FoxedUp or BRILLIANT.MOD
:root
   order TX TY TZ RX RY RZ
   axis XYZ
   position 0 0 0  
   orientation 0 0 0 
:bonedata
  begin
     id 1 
     name lhipjoint
     direction 0.630305 -0.712092 0.309259 
     length 2.29033 
     axis 0 0 0  XYZ
  end
  begin
     id 2 
     name lfemur
     direction 0.34202 -0.939693 0  
     length 6.43538  
     axis 0 0 20  XYZ
    dof rx ry rz
    limits (-160.0 20.0)
           (-70.0 70.0)
           (-60.0 70.0)
  end
  begin
     id 3 
     name ltibia
     direction 0.34202 -0.939693 0   
     length 7.43097   
     axis 0 0 20   XYZ
    dof rx
    limits (-10.0 170.0)
  end
  begin
     id 4 
     name lfoot
     direction 0.0334653 -0.0919451 0.995202   
     length 1.78438   
     axis -90 7.62852e-016 20   XYZ
    dof rx rz
    limits (-45.0 90.0)
           (-70.0 20.0)
  end
  begin
     id 5 
     name ltoes
     direction 1.53535e-011 -4.21933e-011 1   
     length 0.90832   
     axis -90 7.62852e-016 20   XYZ
    dof rx
    limits (-90.0 20.0)
  end
  begin
     id 6 
     name rhipjoint
     direction -0.682059 -0.67077 0.291312   
     length 2.43143  
     axis 0 0 0  XYZ 
  end
  begin
     id 7 
     name rfemur
     direction -0.34202 -0.939693 0   
     length 6.63488   
     axis 0 0 -20   XYZ
    dof rx ry rz
    limits (-160.0 20.0)
           (-70.0 70.0)
           (-70.0 60.0)
  end
  begin
     id 8 
     name rtibia
     direction -0.34202 -0.939693 0   
     length 6.86532   
     axis 0 0 -20   XYZ
    dof rx
    limits (-10.0 170.0)
 end
 begin
     id 9 
     name rfoot
     direction -0.105199 -0.289033 0.951521   
     length 1.77126  
     axis -90 -7.62852e-016 -20   XYZ
    dof rx rz
    limits (-45.0 90.0)
           (-20.0 70.0)
  end
  begin
     id 10 
     name rtoes
     direction -1.53551e-011 -4.21978e-011 1   
     length 0.889273   
     axis -90 -7.62852e-016 -20   XYZ
    dof rx
    limits (-90.0 20.0)
  end
  begin
     id 11 
     name lowerback
     direction -0.0514305 0.998089 0.034245   
     length 2.02077   
     axis 0 0 0   XYZ
    dof rx ry rz
    limits (-20.0 45.0)
           (-30.0 30.0)
           (-30.0 30.0)
  end
  begin
     id 12 
     name upperback
     direction 0.0203189 0.999449 -0.0262315   
     length 2.01413   
     axis 0 0 0   XYZ
    dof rx ry rz
    limits (-20.0 45.0)
           (-30.0 30.0)
           (-30.0 30.0)
  end
  begin
     id 13 
     name thorax
     direction 0.0452736 0.998142 -0.0407729   
     length 2.02986   
     axis 0 0 0   XYZ
    dof rx ry rz
    limits (-20.0 45.0)
           (-30.0 30.0)
           (-30.0 30.0)
  end
  begin
     id 14 
     name lowerneck
     direction -0.0180464 0.999645 -0.0195774   
     length 1.59034   
     axis 0 0 0   XYZ
    dof rx ry rz
    limits (-20.0 45.0)
           (-30.0 30.0)
           (-30.0 30.0)
  end
  begin
     id 15 
     name upperneck
     direction 0.0732272 0.979935 -0.18538   
     length 1.57486   
     axis 0 0 0   XYZ
    dof rx ry rz
    limits (-20.0 45.0)
           (-30.0 30.0)
           (-30.0 30.0)
  end
  begin
     id 16
     name head
     direction 0.0252963 0.997909 -0.059472  
     length 1.60334  
     axis 0 0 0   XYZ
    dof rx ry rz
    limits (-20.0 45.0)
           (-30.0 30.0)
           (-30.0 30.0)
  end
  begin
     id 17 
     name lclavicle
     direction 0.943819 0.330449 0.00315172  
     length 3.50322  
     axis 0 0 0   XYZ
    dof ry rz
    limits (-20.0 10.0)
           (0.0 20.0)
  end
  begin
     id 18 
     name lhumerus
     direction 1 -4.48949e-011 2.22502e-028   
     length 4.63208   
     axis 180 -30 -90   XYZ
    dof rx ry rz
    limits (-60.0 90.0)
           (-90.0 90.0)
           (-90.0 90.0)
  end
  begin
     id 19
     name lradius
     direction 1 -4.48967e-011 -4.10197e-027   
     length 3.41924   
     axis 180 -30 -90   XYZ
    dof rx
    limits (-10.0 170.0)
  end
  begin
     id 20
     name lwrist
     direction 1 -4.48987e-011 -1.24264e-027   
     length 1.70962   
     axis 2.50585e-015 90 90   XYZ
    dof ry
    limits (-180.0 0.0)
 end
  begin
     id 21 
     name lhand
     direction 1 -4.48983e-011 -2.48528e-027   
     length 0.62537   
     axis 1.58582e-015 90 90   XYZ
    dof rx rz
    limits (-90.0 90.0)
           (-45.0 45.0)
  end
  begin
     id 22 
     name lfingers
     direction 1 -4.48896e-011 -4.97056e-027   
     length 0.50419   
     axis 3.17164e-015 90 90   XYZ
    dof rx
    limits (0.0 90.0)
  end
  begin
     id 23
     name lthumb
     direction 0.707107 -6.34803e-011 0.707107   
     length 0.723919   
     axis -90 45 2.85299e-015   XYZ
    dof rx rz
    limits (-45.0 45.0)
           (-45.0 45.0)
  end
  begin
     id 24 
     name rclavicle
     direction -0.964499 0.260664 -0.0423695   
     length 3.91997  
     axis 0 0 0   XYZ 
    dof ry rz
    limits (-10.0 20.0)
           (-20.0 0.0)
  end
  begin
     id 25 
     name rhumerus
     direction -1 -4.48957e-011 -1.98656e-027  
     length 4.4064   
     axis 180 30 90   XYZ
    dof rx ry rz
    limits (-90.0 60.0)
           (-90.0 90.0)
           (-90.0 90.0)
  end
  begin
     id 26 
     name rradius
     direction -1 -4.48968e-011 1.96972e-027   
     length 3.44675   
     axis 180 30 90   XYZ
    dof rx
    limits (-10.0 170.0)
  end
  begin
     id 27 
     name rwrist
     direction -1 -4.48974e-011 -1.24264e-027   
     length 1.72338   
     axis 2.50585e-015 -90 -90   XYZ
    dof ry
    limits (-180.0 0.0)
  end
  begin
     id 28
     name rhand
     direction -1 -4.48901e-011 -2.48528e-027   
     length 0.513674   
     axis 1.58582e-015 -90 -90   XYZ
    dof rx rz
    limits (-90.0 90.0)
           (-45.0 45.0)
  end
  begin
     id 29
     name rfingers
     direction -1 -4.48946e-011 -4.97056e-027   
     length 0.414137   
     axis 3.17164e-015 -90 -90   XYZ
    dof rx
    limits (0.0 90.0)
  end
  begin
     id 30
     name rthumb
     direction -0.707107 -6.34859e-011 0.707107   
     length 0.59462   
     axis -90 -45 -2.85299e-015   XYZ
    dof rx rz
    limits (-45.0 45.0)
           (-45.0 45.0)
  end
:hierarchy
  begin
    root lhipjoint rhipjoint lowerback
    lhipjoint lfemur
    lfemur ltibia
    ltibia lfoot
    lfoot ltoes
    rhipjoint rfemur
    rfemur rtibia
    rtibia rfoot
    rfoot rtoes
    lowerback upperback
    upperback thorax
    thorax lowerneck lclavicle rclavicle
    lowerneck upperneck
    upperneck head
    lclavicle lhumerus
    lhumerus lradius
    lradius lwrist
    lwrist lhand lthumb
    lhand lfingers
    rclavicle rhumerus
    rhumerus rradius
    rradius rwrist
    rwrist rhand rthumb
    rhand rfingers
  end

#!OML:ASF E:\inclinewalkrobotboard\Project 1\Capture day 1\Session 1\subject1.ASF
:FULLY-SPECIFIED
:DEGREES
199
root 9.08907 16.5394 2.06592 -164.753 8.58197 181.612
lowerback 0.815299 6.38421 -7.96025
upperback 1.8532 8.71577 -2.65431
thorax 0.720943 4.35203 1.58291
lowerneck -8.04081 -1.43012 -4.79751
upperneck 23.335 -4.7625 8.75081
head 8.8989 -2.32789 3.23876
rclavicle -7.33515e-014 5.96354e-014
rhumerus -8.07939 4.54461 -85.6237
rradius 39.2114
rwrist 5.78832
rhand -14.3962 -35.3755
rfingers 7.12502
rthumb 11.7471 -65.0261
lclavicle -7.33515e-014 5.96354e-014
lhumerus -31.0782 33.4852 57.1953
lradius 4.76916
lwrist -42.3881
lhand -36.6071 -12.7553
lfingers 7.12502
lthumb -9.6956 17.0015
rfemur -14.7645 12.6004 13.207
rtibia 44.1707
rfoot -30.0143 -6.73149
rtoes -41.5785
lfemur -39.7514 -7.05039 -8.98692
ltibia 37.1993
lfoot -22.0464 14.5197
ltoes -62.7624
200
root 9.02517 16.5978 1.86917 -164.46 8.47087 181.8
lowerback 1.01347 6.07452 -8.29733
upperback 1.85685 8.30172 -2.80236
thorax 0.627087 4.15323 1.60173
lowerneck -7.79176 -1.37411 -4.60928
upperneck 23.0786 -4.74256 8.89436
head 8.76188 -2.30171 3.25546
rclavicle 3.10104e-014 -3.73715e-014
rhumerus -8.6465 3.66248 -84.6594
rradius 38.6736
rwrist 6.33165
rhand -14.2352 -35.9328
rfingers 7.12502
rthumb 11.9024 -65.5745
lclavicle 3.10104e-014 -3.73715e-014
lhumerus -30.1886 33.9592 57.1463
lradius 5.38982
lwrist -43.7673
lhand -36.6211 -14.2189
lfingers 7.12502
lthumb -9.70904 15.5373
rfemur -16.4082 12.6461 13.1132
rtibia 44.6059
rfoot -30.251 -7.4136
rtoes -42.7169
lfemur -39.122 -7.18847 -9.25205
ltibia 36.9352
lfoot -22.4849 14.2284
ltoes -62.9803
201
root 8.96065 16.6524 1.66942 -164.062 8.12213 181.869
lowerback 1.03353 5.63041 -8.63413
upperback 1.8856 7.72625 -2.89616
thorax 0.66812 3.86739 1.70626
lowerneck -7.77113 -1.2618 -4.41605
upperneck 22.9594 -4.62692 8.96005
head 8.70596 -2.22926 3.25431
rclavicle -2.3059e-014 -6.36111e-015
rhumerus -9.38191 2.64597 -83.4513
rradius 38.0215
rwrist 6.78161
rhand -14.0526 -36.0964
rfingers 7.12502
rthumb 12.0784 -65.7278
lclavicle -2.3059e-014 -6.36111e-015
lhumerus -29.4209 34.5419 57.0596
lradius 6.33534
lwrist -45.0153
lhand -36.467 -16.6305
lfingers 7.12502
lthumb -9.56045 13.1326
rfemur -18.2689 12.5458 12.8186
rtibia 45.0135
rfoot -30.2901 -7.8856
rtoes -43.6585
lfemur -38.6942 -7.46205 -9.63382
ltibia 36.7228
lfoot -22.9226 13.8299
ltoes -63.2083
202
root 8.89651 16.7001 1.46967 -163.663 7.66278 181.876
lowerback 1.03095 5.11962 -8.99478
upperback 1.93115 7.05959 -2.89723
thorax 0.738242 3.53164 1.92438
lowerneck -7.72989 -1.13586 -4.55266
upperneck 22.7285 -4.47708 9.28116
head 8.6164 -2.14413 3.4002
rclavicle -3.45885e-014 -2.78299e-014
rhumerus -10.3291 1.69762 -81.9964
rradius 37.1875
rwrist 6.89862
rhand -14.3855 -35.9558
rfingers 7.12502
rthumb 11.7574 -65.6058
lclavicle -3.45885e-014 -2.78299e-014
lhumerus -28.5825 35.2488 57.0655
lradius 7.40903
lwrist -45.8236
lhand -35.4849 -16.0674
lfingers 7.12502
lthumb -8.61278 13.737
rfemur -20.2251 12.4912 12.3997
rtibia 45.4871
rfoot -30.2854 -8.15115
rtoes -43.9269
lfemur -38.2659 -7.76057 -10.0724
ltibia 36.4577
lfoot -23.3642 13.436
ltoes -63.4623
203
root 8.84056 16.7414 1.27439 -163.339 7.27172 182.02
lowerback 1.17045 4.70278 -9.25181
upperback 1.9545 6.49002 -2.81748
thorax 0.704728 3.24624 2.15079
lowerneck -6.75707 -1.06346 -5.03263
upperneck 21.7394 -4.37468 9.9993
head 8.11393 -2.10588 3.72936
rclavicle 1.15295e-014 -1.43125e-014
rhumerus -11.6407 0.466011 -80.328
rradius 36.45
rwrist 7.05728
rhand -14.4962 -36.4279
rfingers 7.12502
rthumb 11.6506 -66.084
lclavicle 1.15295e-014 -1.43125e-014
lhumerus -27.7594 35.8403 57.1743
lradius 8.15168
lwrist -48.0936
lhand -36.4607 -16.444
lfingers 7.12502
lthumb -9.55433 13.3194
rfemur -22.2947 12.8257 12.0675
rtibia 46.2965
rfoot -30.4372 -8.75174
rtoes -43.9038
lfemur -37.7239 -7.82549 -10.313
ltibia 36.137
lfoot -23.8234 13.1001
ltoes -63.7034
204
root 8.7896 16.776 1.08511 -163.165 6.81377 182.256
lowerback 1.55893 4.30529 -9.36742
upperback 1.99539 5.91201 -2.66407
thorax 0.562599 2.9603 2.3581
lowerneck -6.40978 -0.925292 -4.9138
upperneck 21.2001 -4.12936 10.0231
head 7.84772 -1.98643 3.73285
rclavicle -1.55052e-014 7.95139e-015
rhumerus -13.1282 -1.1437 -78.5126
rradius 35.7412
rwrist 7.49085
rhand -14.1677 -37.5983
rfingers 7.12502
rthumb 11.9674 -67.2362
lclavicle -1.55052e-014 7.95139e-015
lhumerus -26.869 36.4252 57.3562
lradius 9.34063
lwrist -49.3586
lhand -35.5685 -17.1355
lfingers 7.12502
lthumb -8.69338 12.6655
rfemur -24.3177 13.365 11.8004
rtibia 47.3575
rfoot -30.4623 -9.37657
rtoes -43.0469
lfemur -37.0573 -7.79658 -10.4399
ltibia 35.8411
lfoot -24.3035 12.7935
ltoes -64.0502
205
root 8.73609 16.7987 0.893447 -163.085 6.03336 182.195
lowerback 2.07011 3.75988 -9.58249
upperback 2.05172 5.12677 -2.50578
thorax 0.388995 2.57337 2.63007
lowerneck -6.80874 -0.799787 -4.75706
upperneck 21.2599 -3.92502 9.88846
head 7.91949 -1.87163 3.6779
rclavicle 1.94809e-014 -3.33958e-014
rhumerus -14.8104 -2.80662 -76.5691
rradius 34.7622
rwrist 8.82494
rhand -14.3539 -37.7345
rfingers 7.12502
rthumb 11.7879 -67.3828
lclavicle 1.94809e-014 -3.33958e-014
lhumerus -25.7498 37.1527 57.735
lradius 10.2616
lwrist -50.4236
lhand -34.8269 -18.6629
lfingers 7.12502
lthumb -7.97775 11.1666
rfemur -26.1573 13.562 11.2083
rtibia 48.2049
rfoot -30.0933 -9.71149
rtoes -41.7055
lfemur -36.3987 -8.08915 -10.9129
ltibia 35.568
lfoot -24.6951 12.3626
ltoes -64.4742
